PathFileType	4	(X/Y/Z)	0_1_29_p1_0-261.trc
DataRate	CameraRate	NumFrames	NumMarkers	Units	OrigDataRate	OrigDataStartFrame	OrigNumFrames
60	60	4	27	m	60	0	261
Frame#	Time	RHip			RKnee			RAnkle			RBigToe			RSmallToe			RHeel			LHip			LKnee			LAnkle			LBigToe			LSmallToe			LHeel			Neck			Head			Nose			RShoulder			RElbow			RWrist			RThumb			RIndex			RPinky			LShoulder			LElbow			LWrist			LThumb			LIndex			LPinky		
		X1	Y1	Z1	X2	Y2	Z2	X3	Y3	Z3	X4	Y4	Z4	X5	Y5	Z5	X6	Y6	Z6	X7	Y7	Z7	X8	Y8	Z8	X9	Y9	Z9	X10	Y10	Z10	X11	Y11	Z11	X12	Y12	Z12	X13	Y13	Z13	X14	Y14	Z14	X15	Y15	Z15	X16	Y16	Z16	X17	Y17	Z17	X18	Y18	Z18	X19	Y19	Z19	X20	Y20	Z20	X21	Y21	Z21	X22	Y22	Z22	X23	Y23	Z23	X24	Y24	Z24	X25	Y25	Z25	X26	Y26	Z26	X27	Y27	Z27
1	0.016666666666666666	0.11083943038733318	0.18541341131740816	0.0075407024913252095	0.11981952622629906	0.15958066110311386	-0.38581807858826805	0.1579065809764542	0.20298284130980848	-0.7560806281118462	0.18509243514634846	0.06780829736239719	-0.7918150414851485	0.10333385917161121	0.07206665473470476	-0.7851230608866734	0.16699202183841036	0.257006267602867	-0.8207399207745932	0.3377124340962719	0.18641303085946218	-0.0003970603883198248	0.34257310477515174	0.14214447032271632	-0.36042866697503534	0.3274921159404266	0.2322129508271698	-0.7648447521115528	0.3114888733544131	0.07372584793485033	-0.7988843599499968	0.3629794612058783	0.0963368922487114	-0.7975211166640073	0.3208067655743476	0.27805194608217987	-0.8367432119705759	0.22053919809783354	0.2673392782542515	0.5460116556052814	0.19531095819031186	0.23237184289497892	0.7976458564951667	0.19723362162125016	0.1640885869970526	0.6771203811498192	0.053758620197548526	0.26091777704804353	0.4724975281993247	0.01249026809182943	0.21563547215165993	0.2098528759762012	0.16836058085012906	0.07767956563591327	0.11250462103911268	0.2609724962494344	0.06764890777346218	0.04460787018721031	0.2590566402001357	0.08129542043651616	0.030025272285611006	0.2554436614742163	0.09195474378539543	0.017051580599920072	0.36802402944645146	0.2581882551507026	0.4832075558985093	0.4317801074464883	0.18542201456754118	0.22557944040011602	0.28004716235492283	0.08422183036976431	0.11101075833167429	0.2015462340411178	0.05983164832443796	0.059487740578324316	0.19389733590968072	0.08147498525020444	0.028202749167943464	0.24117965195757277	0.10483748175321847	0.011428679286211678
2	0.03333333333333333	0.11051277107986808	0.18392747401655277	0.0040812720082530115	0.12195310997405302	0.1564733153127352	-0.38418875046348533	0.1585204986961356	0.2002315230273942	-0.7540823498213405	0.18506516058361952	0.06600338962482892	-0.7950005148433699	0.10051592943229647	0.08286991355489919	-0.7928765528160305	0.17010143102201958	0.24337854804059178	-0.8009468868312054	0.33715073770536913	0.18577636310950746	-0.0003509124078231841	0.34079326056947573	0.14087021737028435	-0.3674491227985287	0.3261702638931156	0.23126640403226975	-0.7644984016894135	0.3101938998283225	0.07272464762039342	-0.8073461017043669	0.3568297528612018	0.0832552623903043	-0.7875835152196805	0.32008125428230705	0.27860799025380795	-0.8315708809768827	0.22044625574875898	0.26747744054828215	0.5460406557602075	0.19520114446208625	0.232420022643074	0.7975728374145014	0.19706705592655552	0.1645042872364319	0.6735519136049967	0.05774215556286749	0.2591285492908899	0.4729646717814861	0.012461710176101698	0.2156617130595385	0.20983367668949193	0.16849639251242118	0.07769723287650203	0.11256729904064199	0.25362477413035645	0.06734579761812602	0.04505485384285508	0.26104267638852546	0.07001105216960662	0.034709373879006425	0.2574778050232567	0.08021269101780222	0.02198205533786789	0.37202191418355174	0.2566575376060887	0.4835236635445666	0.43182087880418524	0.18529977411053536	0.22550828277531515	0.2800330614317	0.08411916125631876	0.11102513676612284	0.19369938476081883	0.07697708885202333	0.051493558204062075	0.19011615365975695	0.08364979095626741	0.027258494160128873	0.2434688979722073	0.09388035596230766	0.016079479184415883
3	0.05	0.11078547311271883	0.18511194637519213	0.007762307281096241	0.12265648790726066	0.1557145205758331	-0.38793743581431317	0.15875359400182276	0.20180149583046686	-0.7505648337597594	0.18518561852035964	0.06591800016332561	-0.7949250613633267	0.10368374152600245	0.07209495312291431	-0.7851374345225944	0.1700968869085673	0.24345543769156353	-0.8009889302032198	0.3372603981220616	0.18717227297729064	0.0032604964187307323	0.34148539630191516	0.14163450437167568	-0.3584557965787744	0.3324905873719752	0.24549106854811636	-0.7745441819093718	0.3106745852701893	0.0744800640319971	-0.8042409194980392	0.36290907141777434	0.09611852686681421	-0.7974056066739041	0.31984059181266056	0.2790889977047204	-0.8319301740460658	0.22044078089290864	0.2675482946365478	0.5460396555566799	0.1951384572721464	0.23157542518735413	0.793990216183193	0.1972076481332467	0.1641855930438599	0.6770954443248546	0.057704349396382484	0.2591174909812981	0.4729068240291036	0.012430610726980373	0.21562270884103762	0.20981626501362796	0.16806112449828595	0.0783940644658057	0.10878857056549573	0.2560596567770804	0.05450293723844388	0.05087470099925877	0.2650198378309447	0.06695949087786876	0.03595712040845813	0.257461527308853	0.07986574678695976	0.022121611368415218	0.3720408918964223	0.2566337917652142	0.48348885724263707	0.43202169406268304	0.18461032678870623	0.2293248059797415	0.2823973172748528	0.07345107473733267	0.11550137104887219	0.1978523392427083	0.07511303585444194	0.05882499981580752	0.19664129664271798	0.07075803662740321	0.032898938525481224	0.24598796721170066	0.08303306509043858	0.021056700685074793
4	0.06666666666666667	0.11074614421339973	0.18527399245914225	0.007565522226321562	0.12221314576795324	0.15833027986317247	-0.38977202005890726	0.158752008624978	0.2018345671861873	-0.7506638655328289	0.1852174765380512	0.06618268199639522	-0.7949935902315325	0.10368797846299424	0.0722461522767649	-0.7852122494797421	0.1701530090448227	0.24343228726299423	-0.8010116830882811	0.3371776397724308	0.18722769353925622	0.0033050172615364626	0.34118236728623813	0.1440973323116582	-0.3600687522707687	0.33277747800250335	0.2473466765249693	-0.7713433665503058	0.3110377303303475	0.07182232477967208	-0.8020778558669756	0.3629369330783277	0.09605419782179805	-0.7973972432204872	0.3200508090416984	0.27905686652517875	-0.8320814424733435	0.22040372056024474	0.2676296745899289	0.5460315116449486	0.19517835064433756	0.23249524392261606	0.7975701921387892	0.19707357417108715	0.16443715506866524	0.6735488740976429	0.05772987178441803	0.2592360838562987	0.47294259184612586	0.01242967616025154	0.2156627814028038	0.20982144984644416	0.16846615605199558	0.07773446022155837	0.11256176660328175	0.256139289735768	0.05423704633388452	0.051115388456389466	0.26513876040981177	0.06661847214012961	0.03628465770822384	0.25749784432242995	0.07920213204095625	0.022450599488892838	0.3719709946294062	0.2566486528116535	0.4835139588824746	0.43200673331913125	0.18455705085993276	0.22935000973001743	0.28232309493588736	0.07342835257094754	0.1154139167382394	0.19801159742429528	0.07316921972875572	0.052214644059818884	0.19286415826269265	0.0728654641306743	0.031950366938705184	0.2459808294341332	0.08271466725318163	0.02121052603958228
